<mxfile host="app.diagrams.net" agent="Mozilla/5.0 (Windows NT 10.0; Win64; x64; rv:130.0) Gecko/20100101 Firefox/130.0" version="24.7.17">
  <diagram name="1 oldal" id="ZYxnsCM2_cjTRUYWAaXu">
    <mxGraphModel dx="1725" dy="782" grid="1" gridSize="10" guides="1" tooltips="1" connect="1" arrows="1" fold="1" page="1" pageScale="1" pageWidth="291" pageHeight="413" math="0" shadow="0">
      <root>
        <mxCell id="0" />
        <mxCell id="1" parent="0" />
        <mxCell id="Ieq8klNrTCmySYKByaQ4-1" value="Autó" style="rounded=0;whiteSpace=wrap;html=1;fillColor=#dae8fc;strokeColor=#6c8ebf;" vertex="1" parent="1">
          <mxGeometry x="-170" y="130" width="160" height="70" as="geometry" />
        </mxCell>
        <mxCell id="Ieq8klNrTCmySYKByaQ4-2" value="Ügyfél" style="rounded=0;whiteSpace=wrap;html=1;fillColor=#dae8fc;strokeColor=#6c8ebf;" vertex="1" parent="1">
          <mxGeometry x="465" y="130" width="160" height="70" as="geometry" />
        </mxCell>
        <mxCell id="Ieq8klNrTCmySYKByaQ4-3" value="Bérlés" style="rhombus;whiteSpace=wrap;html=1;fillColor=#f8cecc;strokeColor=#b85450;" vertex="1" parent="1">
          <mxGeometry x="170" y="125" width="80" height="80" as="geometry" />
        </mxCell>
        <mxCell id="Ieq8klNrTCmySYKByaQ4-4" value="" style="endArrow=classic;html=1;rounded=0;entryX=0;entryY=0.5;entryDx=0;entryDy=0;exitX=1;exitY=0.5;exitDx=0;exitDy=0;" edge="1" parent="1" source="Ieq8klNrTCmySYKByaQ4-1" target="Ieq8klNrTCmySYKByaQ4-3">
          <mxGeometry width="50" height="50" relative="1" as="geometry">
            <mxPoint x="-80" y="175" as="sourcePoint" />
            <mxPoint x="-30" y="125" as="targetPoint" />
          </mxGeometry>
        </mxCell>
        <mxCell id="Ieq8klNrTCmySYKByaQ4-5" value="" style="endArrow=classic;html=1;rounded=0;exitX=0;exitY=0.5;exitDx=0;exitDy=0;entryX=0.931;entryY=0.5;entryDx=0;entryDy=0;entryPerimeter=0;" edge="1" parent="1" source="Ieq8klNrTCmySYKByaQ4-2" target="Ieq8klNrTCmySYKByaQ4-3">
          <mxGeometry width="50" height="50" relative="1" as="geometry">
            <mxPoint x="120" y="420" as="sourcePoint" />
            <mxPoint x="190" y="165" as="targetPoint" />
            <Array as="points" />
          </mxGeometry>
        </mxCell>
        <mxCell id="Ieq8klNrTCmySYKByaQ4-6" value="&lt;u&gt;rendszám&lt;/u&gt;" style="ellipse;whiteSpace=wrap;html=1;fillColor=#ffe6cc;strokeColor=#d79b00;" vertex="1" parent="1">
          <mxGeometry x="-290" y="260" width="90" height="60" as="geometry" />
        </mxCell>
        <mxCell id="Ieq8klNrTCmySYKByaQ4-7" value="márka" style="ellipse;whiteSpace=wrap;html=1;fillColor=#ffe6cc;strokeColor=#d79b00;" vertex="1" parent="1">
          <mxGeometry x="-180" y="260" width="90" height="60" as="geometry" />
        </mxCell>
        <mxCell id="Ieq8klNrTCmySYKByaQ4-8" value="tipus" style="ellipse;whiteSpace=wrap;html=1;fillColor=#ffe6cc;strokeColor=#d79b00;" vertex="1" parent="1">
          <mxGeometry x="-80" y="260" width="90" height="60" as="geometry" />
        </mxCell>
        <mxCell id="Ieq8klNrTCmySYKByaQ4-9" value="állapot" style="ellipse;whiteSpace=wrap;html=1;fillColor=#ffe6cc;strokeColor=#d79b00;" vertex="1" parent="1">
          <mxGeometry x="20" y="260" width="90" height="60" as="geometry" />
        </mxCell>
        <mxCell id="Ieq8klNrTCmySYKByaQ4-10" value="&lt;u&gt;ügyfélazonosító&lt;/u&gt;" style="ellipse;whiteSpace=wrap;html=1;fillColor=#ffe6cc;strokeColor=#d79b00;" vertex="1" parent="1">
          <mxGeometry x="375" y="260" width="90" height="60" as="geometry" />
        </mxCell>
        <mxCell id="Ieq8klNrTCmySYKByaQ4-11" value="név" style="ellipse;whiteSpace=wrap;html=1;fillColor=#ffe6cc;strokeColor=#d79b00;" vertex="1" parent="1">
          <mxGeometry x="492" y="260" width="90" height="60" as="geometry" />
        </mxCell>
        <mxCell id="Ieq8klNrTCmySYKByaQ4-12" value="tel.szám" style="ellipse;whiteSpace=wrap;html=1;fillColor=#ffe6cc;strokeColor=#d79b00;" vertex="1" parent="1">
          <mxGeometry x="610" y="260" width="90" height="60" as="geometry" />
        </mxCell>
        <mxCell id="Ieq8klNrTCmySYKByaQ4-14" value="" style="endArrow=none;html=1;rounded=0;entryX=0;entryY=1;entryDx=0;entryDy=0;" edge="1" parent="1" target="Ieq8klNrTCmySYKByaQ4-1">
          <mxGeometry width="50" height="50" relative="1" as="geometry">
            <mxPoint x="-230" y="260" as="sourcePoint" />
            <mxPoint x="-180" y="210" as="targetPoint" />
          </mxGeometry>
        </mxCell>
        <mxCell id="Ieq8klNrTCmySYKByaQ4-15" value="" style="endArrow=none;html=1;rounded=0;entryX=0.306;entryY=1.043;entryDx=0;entryDy=0;entryPerimeter=0;" edge="1" parent="1" target="Ieq8klNrTCmySYKByaQ4-1">
          <mxGeometry width="50" height="50" relative="1" as="geometry">
            <mxPoint x="-130" y="260" as="sourcePoint" />
            <mxPoint x="-80" y="210" as="targetPoint" />
          </mxGeometry>
        </mxCell>
        <mxCell id="Ieq8klNrTCmySYKByaQ4-16" value="" style="endArrow=none;html=1;rounded=0;entryX=0.75;entryY=1;entryDx=0;entryDy=0;" edge="1" parent="1" target="Ieq8klNrTCmySYKByaQ4-1">
          <mxGeometry width="50" height="50" relative="1" as="geometry">
            <mxPoint x="-40" y="260" as="sourcePoint" />
            <mxPoint x="10" y="210" as="targetPoint" />
          </mxGeometry>
        </mxCell>
        <mxCell id="Ieq8klNrTCmySYKByaQ4-17" value="" style="endArrow=none;html=1;rounded=0;entryX=1;entryY=1;entryDx=0;entryDy=0;" edge="1" parent="1" target="Ieq8klNrTCmySYKByaQ4-1">
          <mxGeometry width="50" height="50" relative="1" as="geometry">
            <mxPoint x="60" y="260" as="sourcePoint" />
            <mxPoint x="110" y="210" as="targetPoint" />
          </mxGeometry>
        </mxCell>
        <mxCell id="Ieq8klNrTCmySYKByaQ4-18" value="" style="endArrow=none;html=1;rounded=0;entryX=0.063;entryY=1.014;entryDx=0;entryDy=0;entryPerimeter=0;" edge="1" parent="1" target="Ieq8klNrTCmySYKByaQ4-2">
          <mxGeometry width="50" height="50" relative="1" as="geometry">
            <mxPoint x="420" y="260" as="sourcePoint" />
            <mxPoint x="470" y="210" as="targetPoint" />
          </mxGeometry>
        </mxCell>
        <mxCell id="Ieq8klNrTCmySYKByaQ4-19" value="" style="endArrow=none;html=1;rounded=0;entryX=0.5;entryY=1;entryDx=0;entryDy=0;" edge="1" parent="1" target="Ieq8klNrTCmySYKByaQ4-2">
          <mxGeometry width="50" height="50" relative="1" as="geometry">
            <mxPoint x="540" y="260" as="sourcePoint" />
            <mxPoint x="590" y="210" as="targetPoint" />
          </mxGeometry>
        </mxCell>
        <mxCell id="Ieq8klNrTCmySYKByaQ4-20" value="" style="endArrow=none;html=1;rounded=0;entryX=0.806;entryY=1.043;entryDx=0;entryDy=0;entryPerimeter=0;" edge="1" parent="1" target="Ieq8klNrTCmySYKByaQ4-2">
          <mxGeometry width="50" height="50" relative="1" as="geometry">
            <mxPoint x="640" y="260" as="sourcePoint" />
            <mxPoint x="690" y="210" as="targetPoint" />
          </mxGeometry>
        </mxCell>
      </root>
    </mxGraphModel>
  </diagram>
</mxfile>
